<svg height="512" viewBox="0 0 512 512" width="512" xmlns="http://www.w3.org/2000/svg"><g id="Flat"><path d="m240 240h24l40 48v-48h112a24 24 0 0 0 24-24v-136a24 24 0 0 0 -24-24h-176a24 24 0 0 0 -24 24v136a24 24 0 0 0 24 24z" fill="#348fd9"/><path d="m336 80h40v16h-40z" fill="#2d7dbf"/><path d="m336 112h16v16h-16z" fill="#2d7dbf"/><path d="m288 192h-48l-48 48v-48h-112a24 24 0 0 1 -24-24v-120a24 24 0 0 1 24-24h208a24 24 0 0 1 24 24v120a24 24 0 0 1 -24 24z" fill="#60d1e0"/><g fill="#3fb5c4"><path d="m88 48h192v16h-192z"/><path d="m192 112h88v16h-88z"/><path d="m88 80h48v16h-48z"/><path d="m152 80h128v16h-128z"/><path d="m192 144h56v16h-56z"/><path d="m264 144h16v16h-16z"/></g><path d="m128 312h-104v-144a32 32 0 0 1 32-32h41.449a32 32 0 0 1 30.136 21.237l32.415 90.763h-32z" fill="#fec9a3"/><path d="m128 280h-6.111a36.744 36.744 0 0 1 -33.044-20.422l14.31-7.156a20.833 20.833 0 0 0 18.734 11.578h6.111z" fill="#f7ad7c"/><path d="m96 224a16 16 0 1 1 16-16 16.019 16.019 0 0 1 -16 16z" fill="#348fd9"/><path d="m128 168h-64l-40 48v-56a40 40 0 0 1 40-40h104v8a40 40 0 0 1 -40 40z" fill="#f98500"/><path d="m232 368-24 56-35.4-82.587a48.528 48.528 0 0 0 -44.6-29.413h-104v176h136v-64l23.211 46.421a31.8 31.8 0 0 0 28.442 17.579 31.8 31.8 0 0 0 28.873-18.474l39.474-85.526z" fill="#f35244"/><path d="m160 432a8 8 0 0 1 -8-8v-32a8 8 0 0 1 16 0v32a8 8 0 0 1 -8 8z" fill="#d63f30"/><path d="m232 368-6.9-34.485a10.508 10.508 0 0 1 2.874-9.492 10.509 10.509 0 0 1 17.4 4.108l2.626 7.869 9.362-18.723a12 12 0 0 1 18.229-4l20.834 16.667a12 12 0 0 1 3.237 14.737l-19.662 39.319z" fill="#fec9a3"/><path d="m408 344-36.93 43.085a45.978 45.978 0 0 0 -11.07 29.924 45.98 45.98 0 0 0 18.392 36.784l13.608 10.207v24h96v-144z" fill="#7eb457"/><path d="m488 161.928v126.072h-104a24 24 0 0 1 -24-24v-32l-32-16 24-24 6.95-41.71a64.975 64.975 0 0 1 64.337-54.29c35.939.141 64.713 29.989 64.713 65.928z" fill="#fec9a3"/><path d="m371.289 256h-11.289v-16h11.289c5.4 0 10.617-4.307 13.283-10.972l14.856 5.944c-5.111 12.774-16.156 21.028-28.139 21.028z" fill="#f7ad7c"/><path d="m392 208a16 16 0 1 1 16-16 16.019 16.019 0 0 1 -16 16z" fill="#348fd9"/><path d="m488 160.97v183.03h-80a312.609 312.609 0 0 1 3.7-48q2.3-14.91 6.03-29.52a313.3 313.3 0 0 1 28.58-72.71l9.69-17.77a141.363 141.363 0 0 1 -94.4-36.16 64.965 64.965 0 0 1 126.4 21.13z" fill="#ffb531"/><path d="m460 336a28 28 0 0 1 28 28v44a0 0 0 0 1 0 0h-56a0 0 0 0 1 0 0v-44a28 28 0 0 1 28-28z" fill="#88c25e"/><path d="m432 408h56v80h-56z" fill="#fec9a3"/></g></svg>