<?xml version="1.0" encoding="iso-8859-1"?>
<!-- Generator: Adobe Illustrator 19.0.0, SVG Export Plug-In . SVG Version: 6.00 Build 0)  -->
<svg version="1.1" id="Capa_1" xmlns="http://www.w3.org/2000/svg" xmlns:xlink="http://www.w3.org/1999/xlink" x="0px" y="0px"
	 viewBox="0 0 512 512" style="enable-background:new 0 0 512 512;" xml:space="preserve">
<path style="fill:#00C063;" d="M445.759,0.757c-87.255,0-158.241,70.987-158.241,158.24v16.281h16.281
	c87.255,0,158.241-70.987,158.241-158.24V0.757H445.759z"/>
<path style="fill:#009A43;" d="M287.518,175.28h16.281c87.255,0,158.241-70.987,158.241-158.24V0.757L287.518,175.28z"/>
<path style="fill:#00C063;" d="M159.276,52.457h-16.28v16.281c0,87.255,70.987,158.241,158.24,158.241h16.281v-16.281
	C317.518,123.445,246.531,52.457,159.276,52.457z"/>
<path style="fill:#009A43;" d="M159.276,52.457h-16.28L317.518,226.98v-16.281C317.518,123.445,246.531,52.457,159.276,52.457z"/>
<path style="fill:#AE4B00;" d="M435.262,336.843c-25.724-28.687-68.777-76.7-122.751-81.185
	c-82.85-6.884-137.142,40.91-139.414,42.947l10.017,11.166l0,0h0.001l10.016,11.165c0.093-0.083,2.061-1.816,5.718-4.478
	l57.143,24.287l53.943,24.438l9.153,44.21l102.761-42.71c1.593,1.697,3.084,3.233,4.469,4.576l20.878-21.542
	C444.228,346.843,440.074,342.208,435.262,336.843z"/>
<path style="fill:#803400;" d="M435.262,336.843c-25.724-28.687-68.777-76.7-122.751-81.185c-3.381-0.281-6.71-0.462-9.994-0.568
	v106.732l7.416,3.36l9.153,44.21l102.761-42.71c1.593,1.697,3.084,3.233,4.469,4.576l20.878-21.542
	C444.228,346.843,440.074,342.208,435.262,336.843z"/>
<path style="fill:#F9D5A5;" d="M508.117,369.113c-5.162-12.42-14.851-22.086-27.283-27.218s-26.117-5.116-38.539,0.046
	L331.89,387.826c0.104-6.695-1.128-13.415-3.714-19.844c-5.25-13.05-15.33-23.114-28.386-28.339l-101.775-40.739
	c-22.535-9.027-47.302-8.865-69.74,0.457l-50.517,20.995l5.757,13.852l0.081,5.425l-0.081,0.055l0.857,84.138l-5.619,13.909
	l165.115,66.694c11.279,4.544,23.107,6.815,34.932,6.815c12.162,0,24.318-2.401,35.867-7.201l166.277-69.107
	c12.42-5.162,22.086-14.851,27.218-27.283C513.295,395.22,513.279,381.534,508.117,369.113z"/>
<g>
	<path style="fill:#F9BE77;" d="M506.878,366.384c-5.373,11.065-14.476,19.684-25.933,24.446l-166.277,69.107
		c-11.549,4.8-23.705,7.201-35.867,7.201c-11.825,0-23.653-2.271-34.932-6.814l-159.783-64.54l0.285,28.042l-5.619,13.909
		l165.115,66.694c11.279,4.544,23.107,6.815,34.932,6.815c12.162,0,24.318-2.401,35.867-7.201l166.277-69.107
		c12.42-5.162,22.086-14.851,27.218-27.283c5.133-12.433,5.116-26.118-0.046-38.539C507.732,368.186,507.313,367.28,506.878,366.384
		z"/>
	<polygon style="fill:#F9BE77;" points="83.934,380.806 84.371,379.721 83.906,334.045 83.515,334.208 83.596,339.634 
		83.515,339.688 	"/>
</g>
<rect y="279.99" style="fill:#FF3100;" width="98.517" height="201.283"/>
<rect x="69.518" y="258.851" style="fill:#FFFFFF;" width="29.999" height="233.652"/>
<rect y="387.406" style="fill:#C81C00;" width="98.517" height="93.877"/>
<rect x="69.518" y="387.406" style="fill:#DBDBDD;" width="29.999" height="105.096"/>
<polygon style="fill:#FF9A00;" points="402.101,77.822 380.417,57.092 287.519,154.502 287.519,174.586 224.62,108.793 
	202.935,129.524 287.519,217.998 287.519,269.963 317.518,269.963 317.518,166.295 "/>
<polygon style="fill:#D86100;" points="380.417,57.092 302.518,138.774 302.518,269.963 317.518,269.963 317.518,166.295 
	402.101,77.822 "/>
<g>
</g>
<g>
</g>
<g>
</g>
<g>
</g>
<g>
</g>
<g>
</g>
<g>
</g>
<g>
</g>
<g>
</g>
<g>
</g>
<g>
</g>
<g>
</g>
<g>
</g>
<g>
</g>
<g>
</g>
</svg>
