<svg height="512pt" viewBox="-1 0 512 512.00038" width="512pt" xmlns="http://www.w3.org/2000/svg"><path d="m441.4375 298.1875c-1.34375 6.25 1.382812 12.679688 6.863281 15.867188l21.460938 12.546874c12.96875 7.582032 17.410156 24.359376 9.933593 37.472657l-20.351562 35.664062c-7.492188 13.121094-24.066406 17.613281-37.035156 10.03125l-21.503906-12.554687c-5.480469-3.203125-12.34375-2.382813-17.019532 1.925781-3.804687 3.515625-7.75 6.863281-11.828125 10.054687-4.996093 3.90625-6.984375 10.609376-4.824219 16.617188l8.488282 23.597656c5.128906 14.246094-2.128906 29.980469-16.203125 35.171875l-51.792969 19.066407c-6.582031 2.421874-13.859375-1.007813-16.253906-7.660157l-13.425782-37.332031c-2.167968-6.015625-7.941406-9.839844-14.261718-9.585938-2.5625.109376-5.136719.160157-7.722656.160157v-441.589844h20.339843c14.980469 0 27.113281 12.273437 27.113281 27.4375v25.054687c0 6.398438 4.140626 12.011719 10.167969 13.949219 4.925781 1.585938 9.78125 3.382813 14.523438 5.351563 5.855469 2.441406 12.589843.835937 16.65625-4.058594l15.917969-19.210938c9.632812-11.609374 26.730468-13.121093 38.207031-3.382812l31.164062 26.457031c11.476563 9.742188 12.96875 27.042969 3.339844 38.664063l-15.9375 19.21875c-4.070313 4.90625-4.464844 11.890625-1.070313 17.300781 2.753907 4.390625 5.339844 8.914063 7.742188 13.539063 2.9375 5.660156 9.105469 8.800781 15.332031 7.691406l24.410157-4.351563c14.746093-2.632812 28.808593 7.328125 31.414062 22.257813l7.0625 40.539062c2.597656 14.917969-7.246094 29.144532-21.992188 31.777344l-24.429687 4.351562c-6.230469 1.121094-10.972656 6.21875-11.8125 12.558594-.683594 5.207032-1.582031 10.34375-2.671875 15.402344zm0 0" fill="#5596fb"/><path d="m255.960938 7.640625v496.785156c-137.183594 0-248.390626-111.210937-248.390626-248.394531 0-137.179688 111.207032-248.390625 248.390626-248.390625zm0 0" fill="#1ab975"/><path d="m255.960938 9.46875v493.128906c-122.898438-14.9375-218.109376-119.636718-218.109376-246.566406 0-126.925781 95.210938-231.625 218.109376-246.5625zm0 0" fill="#1ed688"/><g fill="#ffd993"><path d="m255.960938 33.300781v73.203125c-.777344.132813-1.585938.203125-2.402344.203125h-7.1875c-8.054688 0-14.636719-6.59375-14.636719-14.636719v-44.335937c0-8.042969 6.582031-14.636719 14.636719-14.636719h7.1875c.816406 0 1.625.070313 2.402344.203125zm0 0"/><path d="m255.960938 478.765625c-.777344.132813-1.585938.203125-2.402344.203125h-7.1875c-8.054688 0-14.636719-6.59375-14.636719-14.636719v-44.335937c0-8.042969 6.582031-14.636719 14.636719-14.636719h7.1875c.816406 0 1.625.070313 2.402344.203125"/><path d="m33.03125 259.625v-7.183594c0-8.050781 6.585938-14.640625 14.636719-14.640625h44.328125c8.050781 0 14.636718 6.589844 14.636718 14.640625v7.183594c0 8.050781-6.585937 14.636719-14.636718 14.636719h-44.328125c-8.050781 0-14.636719-6.585938-14.636719-14.636719zm0 0"/></g><path d="m400.414062 256.03125c0 79.65625-64.796874 144.453125-144.453124 144.453125v-288.902344c79.65625 0 144.453124 64.796875 144.453124 144.449219zm0 0" fill="#2476ed"/><path d="m370.128906 256.03125c0 63.050781-51.117187 114.167969-114.167968 114.167969v-228.332031c63.050781 0 114.167968 51.117187 114.167968 114.164062zm0 0" fill="#0a4499"/><path d="m339.121094 254.832031c0 52.300781-35.179688 96.390625-83.160156 109.898438v-219.796875c47.980468 13.507812 83.160156 57.597656 83.160156 109.898437zm0 0" fill="#0956c6"/><path d="m255.960938 223.578125v46.527344c-5.390626 0-10.597657-2.785157-13.515626-7.703125l-62.757812-105.769532c-4.421875-7.46875-1.957031-17.109374 5.503906-21.53125 7.457032-4.429687 17.109375-1.96875 21.53125 5.492188zm0 0" fill="#ffd993"/><path d="m451.617188 283.777344c.410156-3.117188 2.679687-5.566406 5.628906-6.097656l24.433594-4.351563c16.601562-2.96875 28.652343-17.453125 28.652343-34.441406 0-5.339844-.566406-5.351563-7.59375-46.628907-1.699219-9.730468-7.425781-18.328124-15.714843-23.582031-3.53125-2.242187-8.207032-1.195312-10.449219 2.335938-2.238281 3.53125-1.191407 8.207031 2.339843 10.449219 4.691407 2.976562 7.941407 7.863281 8.90625 13.398437 7.359376 42.816406 7.371094 40.933594 7.371094 44.027344 0 9.644531-6.800781 17.859375-16.171875 19.535156l-24.441406 4.351563c-9.472656 1.707031-16.695313 9.347656-17.972656 19.023437-1.707031 12.941406-3.082031 14.84375-3.082031 19.570313 0 7.925781 4.203124 15.296874 10.953124 19.226562l21.464844 12.546875c6.054688 3.539063 9.816406 10.152344 9.816406 17.257813 0 9.027343-4.679687 12.039062-22.988281 45.589843-5.363281 9.394531-17.253906 12.734375-26.644531 7.246094-19.277344-10.453125-22.996094-15.535156-32.496094-15.535156-11.179687 0-14.472656 6.257812-26.335937 15.535156-7.328125 5.730469-10.636719 15.8125-7.285157 25.140625 7.71875 22.390625 9.6875 24.570312 9.6875 30.425781 0 8.328125-5.183593 15.835938-12.890624 18.679688l-51.796876 19.066406c-.5625.207031-1.140624.3125-1.722656.3125-2.125 0-4.050781-1.378906-4.789062-3.429687l-13.429688-37.335938c-3.15625-8.753906-11.660156-14.878906-21.535156-14.589844 0-10.082031 0-53.671875 0-63.96875 63.613281-3.925781 114.167969-56.914062 114.167969-121.496094 0-33.652343-13.429688-64.964843-37.804688-88.175781-3.03125-2.882812-7.820312-2.765625-10.703125.261719-2.882812 3.027344-2.765625 7.820312.261719 10.703125 21.347656 20.324219 33.101563 47.746094 33.105469 77.210937 0 56.230469-43.765625 102.433594-99.027344 106.328126 0-31.125 0-181.085938 0-212.65625 15.097656 1.074218 29.871094 5.351562 43.121094 12.53125 3.675781 1.992187 8.273437.625 10.265625-3.050782 1.988281-3.675781.625-8.269531-3.050781-10.261718-15.457032-8.375-32.71875-13.292969-50.335938-14.394532v-28.023437c0-11.191407 0-79.71875 0-91.296875h12.769531c10.777344 0 19.542969 8.914062 19.542969 19.867187v25.054688c0 9.6875 6.195312 18.191406 15.414062 21.15625 14.277344 4.59375 15.59375 6.839843 22.453126 6.839843 6.539062 0 12.6875-2.882812 16.878906-7.925781l15.917968-19.203125c6.957032-8.390625 19.242188-9.4375 27.480469-2.445312l31.160157 26.457031c8.347656 7.085937 9.375 19.660156 2.414062 28.058594l-15.9375 19.21875c-6.121094 7.378906-6.816406 17.929687-1.65625 26.160156 2.625 4.179687 5.125 8.554687 7.433594 12.996094 3.839844 7.402343 11.332031 12 19.554687 12 3.242188 0 4.5-.550781 18.042969-2.875 4.117188-.734375 6.859375-4.664063 6.125-8.78125-.734375-4.113281-4.660156-6.855469-8.78125-6.125l-14.21875 2.535156c-2.902344.523437-5.839844-.941406-7.285156-3.726563-12.578125-24.207031-14.644532-12.773437 8.378906-41.738281 12.199219-14.714843 10.457031-36.761719-4.269531-49.261719l-31.164063-26.460937c-14.601562-12.390625-36.535156-10.621094-48.933594 4.324219l-15.914062 19.199218c-1.886719 2.269532-5.128906 3.078126-7.933594 1.90625-5.003906-2.078124-10.085937-3.949218-15.109375-5.566406-2.9375-.945312-4.910156-3.652344-4.910156-6.742187v-25.058594c0-19.304687-15.558594-35.0078125-34.683594-35.0078125-8.785156 1.5273435-113.300781-13.0625005-201.332031 74.9687495-105.578125 105.578126-97.417969 275.445313 10.464844 371.882813 3.117187 2.789063 7.902344 2.519531 10.6875-.597656 2.789062-3.117188 2.519531-7.902344-.597656-10.691407-51.085938-45.667968-80.386719-111.128906-80.382813-179.601562 0-130.25 103.953125-236.683594 233.25-240.703125v10.199219h-2.019531c-12.246094 0-22.207032 9.964844-22.207032 22.207031v44.335937c0 12.246094 9.960938 22.207032 22.207032 22.207032h2.019531v81.707031l-35.15625-59.25c-12.046875-20.328125-43.3125-11.675781-43.3125 11.902344 0 11.210937 2.109375 7.792969 62.167969 111.152343l-107.011719 64.273438c-6.5625 3.945312-3.75 14.0625 3.90625 14.0625 3.964844 0-2.332031 2.183594 111.941406-65.976562 2.203125 1.859374 4.738281 3.300781 7.464844 4.246093v121.394531h-2.019531c-12.246094 0-22.207032 9.964844-22.207032 22.207032v44.335937c0 12.246094 9.960938 22.207031 22.207032 22.207031h2.019531v10.199219c-46.171875-1.421875-90.460937-15.875-128.535156-42.007812-3.449219-2.367188-8.160157-1.488281-10.527344 1.960937-2.367187 3.445313-1.488281 8.160156 1.957031 10.523438 42.683594 29.296875 92.710938 44.78125 144.675782 44.78125 4.183593 0 7.570312-3.386719 7.570312-7.570313 0-9.421875 0-38.160156 0-47.773437 3.761719-.15625 6.300781 1.816406 7.292969 4.570312l13.425781 37.328125c3.757812 10.457031 15.355469 16.121094 25.988281 12.203125l51.800781-19.070312c13.636719-5.027344 22.796876-18.242188 22.796876-32.882813 0-9.804687-3.46875-14.394531-10.578126-35.546875-1.082031-3.003906.007813-6.25 2.363282-8.09375 20.886718-16.339844 10.011718-16.964844 41.867187 1.148438 16.691407 9.753906 37.925781 3.839844 47.433594-12.820313l20.347656-35.660156c9.679688-16.960937 3.574219-38.257813-12.6875-47.761719l-21.472656-12.554687c-2.539063-1.476563-3.949219-4.574219-3.269531-7.726563 1.140625-5.308594 2.078125-10.695312 2.777344-16.007812zm-203.226563 165.453125v22.167969h-2.019531c-3.894532 0-7.066406-3.171876-7.066406-7.066407v-44.335937c0-3.894532 3.171874-7.066406 7.066406-7.066406h2.019531zm0-191.644531-62.1875-104.808594c-2.238281-3.78125-1.128906-8.804688 2.851563-11.167969 3.769531-2.238281 8.796874-1.136719 11.15625 2.847656l48.179687 81.199219zm0-158.449219h-2.019531c-3.894532 0-7.066406-3.171875-7.066406-7.066407v-44.335937c0-3.894531 3.171874-7.0625 7.066406-7.0625h2.019531zm0 0"/><path d="m165.445312 105.160156c1.285157 0 2.585938-.324218 3.777344-1.015625 3.621094-2.089843 4.863282-6.71875 2.773438-10.339843l-15.246094-26.40625c-2.089844-3.621094-6.722656-4.859376-10.34375-2.769532-3.617188 2.089844-4.859375 6.722656-2.769531 10.34375l15.246093 26.402344c1.402344 2.429688 3.945313 3.785156 6.5625 3.785156zm0 0"/><path d="m95.382812 170.414062c1.191407.6875 2.496094 1.015626 3.78125 1.015626 2.613282 0 5.160157-1.355469 6.5625-3.785157 2.089844-3.621093.847657-8.253906-2.773437-10.34375l-26.402344-15.242187c-3.621093-2.09375-8.253906-.851563-10.339843 2.769531-2.09375 3.621094-.851563 8.25 2.769531 10.34375zm0 0"/><path d="m95.382812 338.351562-26.402343 15.242188c-3.621094 2.089844-4.863281 6.722656-2.769531 10.34375 2.09375 3.628906 6.726562 4.855469 10.339843 2.769531l26.402344-15.246093c3.621094-2.089844 4.863281-6.71875 2.773437-10.339844-2.089843-3.621094-6.722656-4.859375-10.34375-2.769532zm0 0"/><path d="m156.75 441.363281 15.246094-26.402343c2.089844-3.621094.847656-8.253907-2.773438-10.34375-3.621094-2.089844-8.25-.851563-10.339844 2.769531l-15.246093 26.40625c-2.089844 3.621093-.847657 8.25 2.769531 10.34375 3.605469 2.078125 8.242188.863281 10.34375-2.773438zm0 0"/><path d="m114.203125 252.441406c0-12.246094-9.960937-22.207031-22.207031-22.207031h-44.328125c-12.246094 0-22.210938 9.960937-22.210938 22.207031v7.183594c0 12.246094 9.964844 22.210938 22.210938 22.210938h44.328125c12.246094 0 22.207031-9.964844 22.207031-22.210938zm-15.140625 7.183594c0 3.898438-3.167969 7.066406-7.066406 7.066406h-44.328125c-3.898438 0-7.066407-3.167968-7.066407-7.066406v-7.183594c0-3.894531 3.167969-7.066406 7.066407-7.066406h44.328125c3.898437 0 7.066406 3.171875 7.066406 7.066406zm0 0"/></svg>